{
	"asset":{
		"generator":"Khronos glTF Blender I/O v3.6.27",
		"version":"2.0"
	},
	"scene":0,
	"scenes":[
		{
			"name":"Scene",
			"nodes":[
				0,
				1
			]
		}
	],
	"nodes":[
		{
			"mesh":0,
			"name":"model_2"
		},
		{
			"mesh":1,
			"name":"model_3"
		}
	],
	"meshes":[
		{
			"name":"model_2",
			"primitives":[
				{
					"attributes":{
						"POSITION":0,
						"NORMAL":1,
						"TEXCOORD_0":2
					},
					"indices":3
				}
			]
		},
		{
			"name":"model_3",
			"primitives":[
				{
					"attributes":{
						"POSITION":4,
						"NORMAL":5
					},
					"indices":6
				}
			]
		}
	],
	"accessors":[
		{
			"bufferView":0,
			"componentType":5126,
			"count":8687,
			"max":[
				19.687904357910156,
				182.8284912109375,
				46.101444244384766
			],
			"min":[
				-19.687772750854492,
				60.58837890625,
				-46.01553726196289
			],
			"type":"VEC3"
		},
		{
			"bufferView":1,
			"componentType":5126,
			"count":8687,
			"type":"VEC3"
		},
		{
			"bufferView":2,
			"componentType":5126,
			"count":8687,
			"type":"VEC2"
		},
		{
			"bufferView":3,
			"componentType":5123,
			"count":9681,
			"type":"SCALAR"
		},
		{
			"bufferView":4,
			"componentType":5126,
			"count":2439,
			"max":[
				18.440563201904297,
				159.4256591796875,
				32.3151969909668
			],
			"min":[
				-17.700498580932617,
				131.06350708007812,
				-20.409116744995117
			],
			"type":"VEC3"
		},
		{
			"bufferView":5,
			"componentType":5126,
			"count":2439,
			"type":"VEC3"
		},
		{
			"bufferView":6,
			"componentType":5123,
			"count":3918,
			"type":"SCALAR"
		}
	],
	"bufferViews":[
		{
			"buffer":0,
			"byteLength":104244,
			"byteOffset":0,
			"target":34962
		},
		{
			"buffer":0,
			"byteLength":104244,
			"byteOffset":104244,
			"target":34962
		},
		{
			"buffer":0,
			"byteLength":69496,
			"byteOffset":208488,
			"target":34962
		},
		{
			"buffer":0,
			"byteLength":19362,
			"byteOffset":277984,
			"target":34963
		},
		{
			"buffer":0,
			"byteLength":29268,
			"byteOffset":297348,
			"target":34962
		},
		{
			"buffer":0,
			"byteLength":29268,
			"byteOffset":326616,
			"target":34962
		},
		{
			"buffer":0,
			"byteLength":7836,
			"byteOffset":355884,
			"target":34963
		}
	],
	"buffers":[
		{
			"byteLength":363720,
			"uri":"data:application/octet-stream;base64,"
		}
	]
}
