<?xml version="1.0" encoding="UTF-8" standalone="no"?>
<!-- Created with Inkscape (http://www.inkscape.org/) -->

<svg
   width="253.31358mm"
   height="78.41008mm"
   viewBox="0 0 253.31358 78.41008"
   version="1.1"
   id="svg1"
   xml:space="preserve"
   xmlns="http://www.w3.org/2000/svg"
   xmlns:svg="http://www.w3.org/2000/svg"><defs
     id="defs1" /><g
     id="g2"
     transform="translate(-322.99665,-63.18989)"
     style="display:inline"><path
       style="display:inline;opacity:1;fill:#000000;fill-opacity:1;stroke-width:0.275894"
       d="m 374.43197,128.99018 c 1.30032,-2.51935 5.46688,2.57586 11.51556,-1.69941 6.04869,-4.27527 6.34456,-7.61209 9.95544,-14.49171 3.61089,-6.87961 4.66216,-9.42854 8.27236,-11.20037 3.6102,-1.771831 12.00273,-0.47742 18.09406,-1.09609 6.09134,-0.618665 4.81624,-2.101893 6.99362,-2.078597 1.30479,0.01396 1.87796,2.270757 0.25858,3.977397 -1.61939,1.70663 -3.40119,3.71447 -4.86127,5.24766 -3.83683,4.02895 -7.21234,8.14155 -8.33897,11.57955 -0.84067,2.56538 -1.18674,6.95627 1.6546,7.49831 5.30589,1.01219 36.62547,-18.38592 34.97112,-15.13981 -1.65436,3.24612 -29.37565,23.80211 -39.93699,21.44306 -8.94291,-1.99755 -4.84473,-14.03246 -1.40309,-19.88818 3.93206,-6.69014 6.91453,-8.80167 6.91453,-8.80167 0,0 -2.68427,0.74366 -5.56456,0.73379 -2.78357,-0.01 -3.71619,0.81407 -5.57715,1.8116 -1.86096,0.9975 -5.19627,13.84389 -9.86994,18.73995 -3.21993,3.37313 -8.01568,7.47785 -15.08518,7.49508 -7.0695,0.0172 -9.29304,-1.61121 -7.99272,-4.13056 z"
       id="path7" /><path
       style="display:inline;fill:#000000"
       d="m 279.3868,145.00094 c -2.54787,-0.10915 -5.67034,-1.2321 -7.72564,-2.30464 -4.58544,-2.3929 -7.4297,-7.4677 -6.97453,-12.44416 0.25724,-2.81247 1.72777,-5.18761 3.7297,-6.02407 1.16451,-0.48657 1.57805,-0.48322 2.64133,0.0213 1.31216,0.62266 1.94245,2.01875 2.27535,5.03993 0.51915,4.71139 1.95647,7.59215 4.60503,9.22962 1.23307,0.76235 1.43614,0.80179 4.09626,0.79561 2.19977,-0.005 3.12274,-0.12763 4.31191,-0.57237 5.10661,-1.9098 10.86414,-7.0081 16.00501,-14.17243 2.79185,-3.89075 8.27883,-13.51086 8.27883,-14.51498 0,-0.67833 -4.41886,0.23103 -10.48903,2.15856 -1.81221,0.57545 -3.62253,1.04627 -4.02294,1.04627 -2.22614,0 -1.67721,-2.68938 0.94231,-4.61673 2.6901,-1.97927 10.53444,-4.4156 17.05261,-5.2963 l 1.23399,-0.16673 1.4794,-2.69918 c 2.21535,-4.04193 4.83053,-8.099032 6.85962,-10.64178 3.94009,-4.937506 9.00538,-9.656078 11.93297,-11.116164 1.83201,-0.913684 3.77976,-0.900825 4.88869,0.03228 0.44772,0.376738 0.81405,0.905101 0.81405,1.174139 0,0.269039 -0.92417,1.601009 -2.05371,2.959933 -2.95149,3.550863 -6.04931,8.013851 -8.36459,12.050755 -2.64552,4.61269 -3.65775,6.642677 -3.46656,6.952027 0.091,0.14726 1.79448,0.22576 4.07838,0.18792 3.5381,-0.0586 3.977,-0.0156 4.48303,0.43906 1.06169,0.95396 0.4328,3.34984 -1.12305,4.27852 -0.70592,0.42135 -1.57873,0.51591 -5.85663,0.63443 l -5.02708,0.13928 -1.02082,1.98437 c -2.39646,4.65848 -6.45842,11.72528 -8.43653,14.67735 -6.33694,9.45711 -11.47212,14.29051 -19.11765,17.99419 -5.29145,2.56331 -7.93719,3.12067 -13.65248,2.87583 z m 126.05718,-8.48265 c -3.26417,-0.32271 -5.67447,-2.01315 -6.60315,-4.63106 -0.25313,-0.71357 -0.54305,-1.52019 -0.64427,-1.79249 -0.16355,-0.43997 -0.47728,-0.2948 -2.81831,1.30406 -5.03978,3.44205 -9.03534,4.8395 -14.50125,5.07181 -6.21984,0.26435 -9.49309,-1.13817 -11.51658,-4.93463 -0.47127,-0.88419 -0.65849,-1.59266 -0.91331,-2.73625 -0.37947,-1.70297 -0.66268,-4.31647 0.60054,-7.60356 0.95649,-2.62468 3.03736,-6.54816 4.5062,-8.4964 3.6106,-4.78905 9.28199,-8.53123 14.65768,-9.67164 2.41338,-0.51197 7.25176,-0.35567 8.70549,0.28123 4.21296,1.84576 5.11852,6.93743 2.02849,11.40546 -3.00227,4.34111 -10.06125,7.63312 -16.86459,10.8307 -2.05554,0.96611 -3.23913,1.61663 -3.23913,1.61663 0.034,2.99832 2.21645,4.28554 6.79423,3.55423 5.13023,-0.81956 11.74911,-5.42264 13.46278,-9.36265 3.60689,-8.29286 8.88731,-14.06294 15.97552,-17.45695 5.25732,-2.51734 11.00146,-2.3124 14.72179,0.52523 0.80564,0.61449 0.99506,0.66545 1.29047,0.34713 0.31084,-0.33494 1.73764,-2.83589 7.23183,-12.676199 0.93436,-1.67349 2.34352,-4.144037 3.13146,-5.490105 0.78793,-1.346067 2.10867,-3.608255 2.93497,-5.027083 2.85799,-4.907436 3.85614,-6.550378 4.25976,-7.011458 0.34905,-0.398749 0.90884,-0.463021 4.03279,-0.463021 3.26919,0 3.69633,0.05416 4.32462,0.54837 0.80427,0.632643 0.87189,1.250347 0.26726,2.441332 -0.889,1.751097 -5.41573,9.431186 -15.78202,26.775924 -2.26128,3.78354 -4.75793,8.01026 -5.54811,9.39271 -0.79018,1.38244 -2.24358,3.88276 -3.22979,5.55625 -3.81576,6.47494 -4.97403,9.41522 -4.11614,10.4489 0.39156,0.47181 1.91289,0.52514 2.73114,0.0957 1.9761,-1.03701 5.33906,-4.73112 7.91333,-8.69255 0.80379,-1.23693 3.40012,-5.46365 5.76961,-9.39271 2.3695,-3.92906 4.59322,-7.5307 4.94161,-8.00364 l 0.63343,-0.8599 h 3.49954 c 5.71086,0 5.83233,0.37057 2.131,6.50103 -1.39953,2.31803 -3.08507,5.04803 -3.74565,6.06668 -2.62566,4.04894 -6.26247,10.12972 -6.84851,11.45077 -1.139,2.56751 -0.68896,3.82064 1.15613,3.21925 1.54057,-0.50213 2.96943,-1.59163 6.94612,-5.2964 3.82375,-3.56229 4.799,-4.77508 7.82921,-9.73624 1.01063,-1.65465 3.14733,-5.10746 4.74822,-7.67292 l 2.91069,-4.66446 2.64556,-0.0773 c 3.17372,-0.0928 3.69701,0.0159 4.26723,0.88614 0.35903,0.54794 0.38164,0.79125 0.12574,1.3529 -0.17162,0.37665 -0.2778,0.71485 -0.23597,0.75155 0.0418,0.0367 1.01663,-0.39502 2.16624,-0.95939 2.61228,-1.28244 4.89046,-1.72092 6.80643,-1.31002 4.63998,0.9951 6.13235,5.08847 3.69476,10.13419 -0.44038,0.91157 -1.88251,3.50286 -3.20474,5.75844 -3.54183,6.04198 -4.27412,7.65296 -4.17593,9.18667 l 0.081,1.26437 1.19791,-0.0129 c 1.48018,-0.016 3.04461,-1.02536 5.60018,-3.61325 2.20209,-2.22993 3.4905,-4.05848 6.30027,-8.94152 3.07379,-5.34189 7.33649,-12.39978 8.10976,-13.4276 l 0.64693,-0.8599 3.49227,0.004 c 1.92074,0.002 3.62001,0.0915 3.77614,0.19844 0.5374,0.36798 0.63606,1.15202 0.25864,2.05532 -0.20805,0.49792 -1.83216,3.43806 -3.60914,6.53365 -1.77698,3.09558 -3.46568,6.04505 -3.75266,6.55437 -0.28698,0.50933 -1.32946,2.3548 -2.31662,4.10105 -2.1281,3.76453 -2.80018,5.59723 -2.44523,6.668 0.21521,0.64923 0.39547,0.75017 1.46495,0.8203 2.08586,0.13677 4.27866,-1.36565 9.27099,-6.35215 2.89137,-2.88799 3.59627,-3.17163 4.82597,-1.94193 1.36974,1.36974 0.56996,2.81899 -4.03574,7.31291 -3.48203,3.39753 -5.8231,5.17066 -8.32408,6.30465 -5.16827,2.34341 -10.43015,1.4394 -12.26406,-2.107 -0.22268,-0.4306 -0.48495,-0.78291 -0.58283,-0.78291 -0.0979,0 -0.98327,0.54029 -1.96751,1.20065 -2.51086,1.6846 -4.30296,2.44606 -6.58581,2.79829 -7.43472,1.14714 -10.79228,-4.73987 -7.16458,-12.56207 0.41407,-0.89283 1.80022,-3.40927 3.08033,-5.59208 3.28649,-5.60406 3.64691,-6.66779 2.47223,-7.29645 -1.68027,-0.89926 -4.76608,0.8376 -7.17492,4.03842 -1.49684,1.98898 -8.65496,12.91265 -11.62872,17.74605 -2.34646,3.81382 -2.06596,3.63594 -5.73377,3.63594 -2.69015,0 -3.18445,-0.0671 -3.56156,-0.48385 -0.24084,-0.26612 -0.43789,-0.74237 -0.43789,-1.05834 0,-0.75366 -0.26571,-0.72612 -1.92223,0.19922 -2.18591,1.22105 -4.13735,1.67228 -6.76589,1.56448 -2.89466,-0.11871 -4.10737,-0.67582 -5.2025,-2.38996 -0.43656,-0.68332 -0.89278,-1.24887 -1.01381,-1.25677 -0.12103,-0.008 -0.71634,0.388 -1.32291,0.87977 -3.06226,2.48271 -8.039,3.53997 -11.30834,2.40235 -1.45752,-0.50717 -2.09333,-1.02894 -2.99573,-2.45844 -0.4538,-0.71886 -0.82383,-1.0522 -1.02963,-0.92752 -0.17669,0.10704 -1.1709,0.74746 -2.20937,1.42315 -3.48585,2.26811 -7.2728,3.25105 -11.07646,2.875 z m 7.9375,-6.29347 c 3.13367,-1.43806 5.83578,-4.8282 10.25339,-12.86416 2.66327,-4.8447 3.10807,-5.8201 3.10807,-6.81577 0,-1.90488 -1.79018,-3.1198 -3.83744,-2.60429 -5.04763,1.271 -11.75463,7.88548 -14.43719,14.23801 -0.73472,1.73987 -0.87332,2.39819 -0.88904,4.22268 -0.0202,2.34635 0.39327,3.30094 1.72667,3.9862 0.92309,0.47439 2.85538,0.39727 4.07554,-0.16267 z m -27.72256,-11.45675 c 4.95745,-2.75938 6.4422,-6.80602 6.52105,-9.81298 0.0321,-1.22508 -0.41533,-1.58767 -1.68495,-1.3654 -2.72518,0.47711 -9.24334,7.28668 -10.98905,11.32919 -0.82752,1.91627 -0.83708,2.59943 -1.08397,3.61516 -0.10923,0.48064 2.67739,-1.22808 7.23692,-3.76597 z M 281.02643,104.63935 c -5.76808,-1.55124 -9.01416,-6.168935 -9.02241,-12.834805 -0.007,-5.774361 2.20814,-10.651416 6.91351,-15.220444 4.68629,-4.550493 10.4925,-7.45685 17.64756,-8.833661 8.31978,-1.600931 17.10698,-1.326136 34.70246,1.085222 23.83437,3.266362 33.83523,3.32206 43.33969,0.241374 3.54697,-1.149685 4.51994,-1.03553 5.05753,0.593384 0.49177,1.490083 -0.37433,3.557994 -2.1138,5.046911 -5.41408,4.634258 -19.68286,5.410398 -37.36991,2.03271 -5.35121,-1.021919 -17.05948,-2.895089 -20.55518,-3.288561 -10.25363,-1.154135 -17.84272,-0.692277 -24.07708,1.465288 -6.50021,2.249568 -10.81643,5.717312 -13.40446,10.769427 -0.89419,1.745573 -1.00332,2.183333 -1.101,4.416696 -0.094,2.149223 -0.0311,2.638724 0.47242,3.678937 0.776,1.603004 2.86585,3.440631 4.58206,4.029041 1.62242,0.556257 5.25631,0.616084 7.03563,0.115832 1.43943,-0.404694 2.49902,-0.04011 2.93376,1.009464 0.40148,0.969252 0.0496,1.821355 -1.20801,2.925585 -2.9743,2.61147 -9.53352,3.92381 -13.83277,2.7676 z m 230.60612,-6.975196 c -2.18226,-0.684893 -3.39795,-2.332389 -3.39795,-4.604904 0,-1.638766 0.49811,-2.768567 1.67691,-3.80357 3.66201,-3.215291 9.10864,0.008 7.8585,4.650699 -0.68841,2.556569 -3.83204,4.481318 -6.13746,3.757775 z m -53.13018,-0.476356 c -3.24885,-1.646881 -3.03373,-6.962676 0.35281,-8.718294 1.1059,-0.573309 3.50787,-0.574265 4.58502,-0.0018 3.01424,1.60189 3.27261,6.140869 0.47119,8.277617 -0.82515,0.62937 -1.29217,0.771143 -2.74342,0.832816 -1.26162,0.05361 -2.00441,-0.05515 -2.6656,-0.390314 z"
       id="path5"
       transform="translate(58.357651,-3.5551816)" /></g></svg>
